<?xml version="1.0" standalone="no"?>
<!DOCTYPE svg PUBLIC "-//W3C//DTD SVG 20010904//EN"
 "http://www.w3.org/TR/2001/REC-SVG-20010904/DTD/svg10.dtd">
<svg version="1.0" xmlns="http://www.w3.org/2000/svg"
 width="242.000000pt" height="242.000000pt" viewBox="0 0 242.000000 242.000000"
 preserveAspectRatio="xMidYMid meet">
<metadata>
Created by potrace 1.14, written by Peter Selinger 2001-2017
</metadata>
<g transform="translate(0.000000,242.000000) scale(0.100000,-0.100000)"
fill="#000000" stroke="none">
<path d="M1484 2338 c-22 -10 -44 -47 -44 -73 0 -71 94 -110 144 -59 68 67
-14 174 -100 132z"/>
<path d="M1089 2166 c-149 -40 -259 -181 -259 -332 0 -24 -10 -53 -30 -84 -33
-52 -64 -134 -75 -201 -4 -24 -14 -71 -22 -103 -15 -58 -14 -191 1 -260 26
-115 139 -253 249 -305 94 -43 145 -52 301 -50 223 2 341 45 465 169 106 105
157 223 167 380 3 47 13 107 21 134 20 62 12 159 -17 215 -46 91 -132 153
-230 167 -80 10 -146 45 -164 84 -65 147 -246 230 -407 186z m1 -573 c0 -46
-2 -49 -45 -76 -25 -16 -45 -32 -45 -36 0 -3 20 -17 45 -31 44 -24 45 -26 45
-72 0 -27 -2 -48 -4 -48 -3 0 -48 25 -100 56 l-96 56 0 43 0 42 98 56 c53 31
98 56 100 57 1 0 2 -21 2 -47z m223 32 c-8 -36 -175 -390 -185 -392 -7 -2 -19
1 -26 5 -9 6 1 36 41 123 30 63 69 151 88 197 31 75 36 82 59 80 14 -2 24 -7
23 -13z m148 -42 l99 -58 0 -40 0 -40 -98 -55 c-53 -30 -100 -56 -104 -58 -5
-2 -8 18 -8 45 0 47 1 48 50 76 28 16 50 30 50 32 0 1 -22 17 -50 35 -48 31
-50 34 -50 76 0 24 3 44 6 44 4 0 51 -26 105 -57z"/>
<path d="M1610 2055 c-17 -20 -5 -62 20 -70 29 -9 60 12 60 40 0 39 -55 60
-80 30z"/>
<path d="M615 1805 c-14 -13 -25 -36 -25 -50 0 -33 42 -75 75 -75 14 0 37 11
50 25 14 13 25 36 25 50 0 14 -11 37 -25 50 -13 14 -36 25 -50 25 -14 0 -37
-11 -50 -25z"/>
<path d="M1577 782 c-33 -36 -8 -92 40 -92 25 0 53 30 53 57 0 46 -62 69 -93
35z"/>
<path d="M1085 770 c-40 -45 20 -105 65 -65 24 22 26 48 4 69 -21 22 -47 20
-69 -4z"/>
<path d="M54 530 c-17 -4 -36 -10 -42 -14 -16 -10 -15 -33 2 -43 27 -16 34
-50 32 -153 -3 -104 -10 -140 -27 -140 -13 0 -11 -38 3 -46 6 -4 41 -9 77 -10
105 -4 163 32 110 68 -20 13 -22 23 -23 137 0 116 1 125 22 141 26 21 28 33 7
50 -17 14 -116 20 -161 10z"/>
<path d="M272 529 c-31 -12 -40 -39 -18 -55 10 -6 40 -70 67 -141 70 -181 80
-202 99 -208 40 -13 50 0 109 138 11 27 25 46 29 43 5 -3 24 -42 43 -87 51
-124 88 -130 136 -21 16 37 45 109 63 160 41 116 58 139 88 123 26 -14 34 -41
36 -129 3 -95 -9 -160 -33 -180 -41 -34 -14 -41 169 -43 164 -2 175 -1 187 18
34 50 33 123 -1 123 -9 0 -22 -13 -31 -30 -20 -39 -43 -50 -104 -50 -28 0 -51
1 -51 3 0 1 -3 25 -6 53 -5 42 -3 52 11 58 22 8 45 -10 45 -35 0 -29 39 -24
50 7 14 35 13 98 -2 129 -14 30 -42 29 -46 -2 -7 -50 -57 -53 -64 -3 -8 54 6
70 62 70 41 0 55 -5 74 -25 13 -14 30 -25 39 -25 28 0 37 62 13 96 -13 18 -25
19 -178 15 -90 -1 -168 -7 -174 -12 -6 -5 -15 -4 -20 1 -26 26 -131 20 -141
-7 -3 -8 4 -23 16 -34 25 -24 24 -15 5 -73 -21 -61 -41 -57 -67 12 -16 42 -18
55 -8 62 24 14 7 44 -29 52 -55 12 -153 1 -168 -19 -10 -14 -8 -21 13 -43 14
-14 25 -36 25 -48 0 -30 -21 -73 -34 -69 -18 6 -46 100 -40 133 4 21 1 35 -7
40 -18 11 -129 13 -157 3z"/>
<path d="M1322 532 c-33 -5 -40 -32 -13 -53 22 -18 22 -24 20 -144 -3 -114 -5
-127 -26 -152 -20 -23 -21 -29 -10 -41 20 -20 295 -19 334 1 44 23 65 53 70
99 5 44 -11 72 -54 97 -17 9 -16 12 3 48 21 40 22 54 10 91 -13 40 -56 53
-189 55 -67 1 -132 1 -145 -1z m208 -111 c0 -38 -58 -84 -61 -48 -6 62 -3 89
11 97 17 11 50 -21 50 -49z m8 -170 c4 -39 -12 -61 -44 -61 -18 0 -24 6 -26
23 -3 48 2 81 14 88 21 13 53 -15 56 -50z"/>
<path d="M1811 459 c-60 -11 -93 -35 -89 -62 2 -14 9 -20 18 -18 65 18 101 7
95 -27 -2 -9 -4 -20 -4 -23 -1 -3 -17 -14 -36 -25 -21 -11 -33 -24 -30 -32 3
-8 5 -18 5 -23 0 -5 18 -9 41 -9 76 0 102 -37 57 -80 -20 -19 -31 -21 -85 -16
-65 6 -79 0 -68 -33 7 -24 26 -31 91 -38 146 -15 253 56 246 161 -3 37 -18 55
-61 73 l-33 14 21 23 c68 73 -30 140 -168 115z"/>
<path d="M2162 444 c-77 -34 -103 -80 -61 -107 13 -8 23 -5 43 10 34 27 66 20
66 -15 0 -27 -27 -66 -95 -139 -24 -25 -42 -50 -39 -55 3 -4 57 -8 120 -8 89
0 120 -4 140 -16 23 -16 26 -15 44 1 24 22 42 80 34 112 -7 28 -18 29 -51 3
-58 -45 -85 -5 -31 44 44 40 58 66 58 104 0 34 -47 81 -83 83 -76 5 -103 2
-145 -17z"/>
</g>
</svg>
